<svg width="331" height="116" viewBox="0 0 331 116" fill="none" xmlns="http://www.w3.org/2000/svg">
<g clip-path="url(#clip0_174_110)">
<path d="M29.1787 89.3865H0V89.1247C0 87.0044 16.5788 92.0391 16.5788 72.4149V13.9263C16.5788 -1.98947 0 2.25124 0 0.261772V0H29.1787V89.3865ZM38.0614 0C68.9591 0 93.3648 14.5894 93.3648 44.5624C93.3648 60.4781 83.2866 89.3865 38.0614 89.3865V88.5924C62.598 86.8735 79.1681 72.6767 79.1681 45.0946C79.1681 24.0045 67.8945 2.78351 38.0614 0.794042V0Z" fill="white"/>
<path d="M102.919 64.8497C101.994 92.0391 119.367 87.1265 119.367 89.1247V89.3865H85.1539V89.1247C85.1539 86.8735 101.995 93.2345 102.125 64.8497H102.919ZM164.985 89.3865L102.789 9.02242C95.0925 -1.06454 86.4715 2.25124 86.4715 0.261772V0H112.596L165.771 69.3609V89.3865H164.976H164.985ZM164.985 24.6677C165.91 -2.52174 148.537 2.39085 148.537 0.401384V0.130886H182.751V0.401384C182.751 2.65263 165.91 -3.70844 165.779 24.6677H164.985Z" fill="white"/>
<path d="M190.613 115.503H161.434V115.241C161.434 113.121 178.013 118.155 178.013 98.5311V40.0425C178.013 24.1355 161.434 28.3762 161.434 26.3867V26.1249H190.613V115.511V115.503ZM199.495 26.1162C230.393 26.1162 254.799 40.7057 254.799 70.6786C254.799 86.5943 244.72 115.503 199.495 115.503V114.709C224.032 112.99 240.602 98.7929 240.602 71.2108C240.602 50.1207 229.328 28.9084 199.495 26.919V26.1249V26.1162Z" fill="white"/>
<path d="M246.658 89.5173V89.2556C246.658 87.1352 263.236 92.17 263.236 72.5458V13.5249C263.236 -1.59684 246.658 2.25121 246.658 0.392632V0.130859H292.546V0.401357C292.546 2.25994 275.836 -1.18673 275.836 13.5336V89.5173H246.658ZM284.719 88.5924C307.929 87.2661 321.847 80.5037 329.674 58.349C329.936 57.555 330.206 57.1623 330.738 57.1623H331.009L323.714 92.0391C318.679 90.3201 309.928 89.5173 284.728 89.5173V88.5924H284.719Z" fill="white"/>
<path d="M14.5981 107.554V110.957H18.6555V111.838H14.5981V115.922H13.6121V106.672H19.3536V107.554H14.5981Z" fill="white"/>
<path d="M27.7128 115.922L26.9711 113.827H22.9311L22.1894 115.922H21.1336L24.5366 106.672H25.3656L28.7599 115.922H27.704H27.7128ZM24.9729 108.086L23.2278 112.972H26.6831L24.9642 108.086H24.9729Z" fill="white"/>
<path d="M34.5886 116C33.2012 116 32.285 115.651 31.4212 114.778L32.0931 114.107C32.8609 114.874 33.5764 115.119 34.6148 115.119C35.9673 115.119 36.7962 114.482 36.7962 113.4C36.7962 112.92 36.6566 112.501 36.3512 112.239C36.0545 111.978 35.8189 111.899 35.1471 111.794L34.0651 111.628C33.3409 111.515 32.765 111.279 32.3636 110.93C31.8924 110.512 31.6655 109.944 31.6655 109.203C31.6655 107.632 32.7999 106.594 34.6323 106.594C35.8102 106.594 36.5955 106.89 37.3896 107.606L36.7526 108.243C36.1767 107.719 35.5746 107.449 34.5974 107.449C33.3583 107.449 32.6515 108.138 32.6515 109.168C32.6515 109.622 32.7824 109.988 33.0704 110.232C33.3583 110.477 33.8382 110.66 34.3181 110.738L35.3303 110.896C36.2029 111.026 36.6304 111.21 37.0231 111.55C37.5292 111.978 37.7997 112.615 37.7997 113.382C37.7997 115.005 36.5257 116.009 34.6061 116.009L34.5886 116Z" fill="white"/>
<path d="M47.1798 115.922V111.698H42.7908V115.922H41.8047V106.672H42.7908V110.817H47.1798V106.672H48.1658V115.922H47.1798Z" fill="white"/>
<path d="M52.7991 115.922V106.672H53.7851V115.922H52.7991Z" fill="white"/>
<path d="M63.6626 115.04C63.043 115.66 62.2228 116 61.2979 116C60.373 116 59.5528 115.66 58.9332 115.04C58.0607 114.168 58.0607 113.26 58.0607 111.297C58.0607 109.334 58.0607 108.426 58.9332 107.554C59.5528 106.934 60.373 106.594 61.2979 106.594C62.2228 106.594 63.043 106.934 63.6626 107.554C64.5351 108.426 64.5351 109.334 64.5351 111.297C64.5351 113.26 64.5351 114.168 63.6626 115.04ZM62.8947 108.138C62.4933 107.719 61.9087 107.475 61.2979 107.475C60.6871 107.475 60.1025 107.719 59.7011 108.138C59.1165 108.74 59.0554 109.36 59.0554 111.297C59.0554 113.234 59.1165 113.854 59.7011 114.456C60.1025 114.874 60.6871 115.119 61.2979 115.119C61.9087 115.119 62.4933 114.874 62.8947 114.456C63.4793 113.854 63.5404 113.234 63.5404 111.297C63.5404 109.36 63.4793 108.74 62.8947 108.138Z" fill="white"/>
<path d="M74.7092 115.922L69.7967 108.505V115.922H68.8107V106.672H69.7443L74.6569 114.063V106.672H75.6429V115.922H74.7092Z" fill="white"/>
<path d="M90.843 115.922V111.698H86.454V115.922H85.468V106.672H86.454V110.817H90.843V106.672H91.829V115.922H90.843Z" fill="white"/>
<path d="M101.707 115.04C101.087 115.66 100.267 116 99.3418 116C98.4169 116 97.5967 115.66 96.9772 115.04C96.1046 114.168 96.1046 113.26 96.1046 111.297C96.1046 109.334 96.1046 108.426 96.9772 107.554C97.5967 106.934 98.4169 106.594 99.3418 106.594C100.267 106.594 101.087 106.934 101.707 107.554C102.579 108.426 102.579 109.334 102.579 111.297C102.579 113.26 102.579 114.168 101.707 115.04ZM100.939 108.138C100.537 107.719 99.9526 107.475 99.3418 107.475C98.731 107.475 98.1464 107.719 97.745 108.138C97.1604 108.74 97.0993 109.36 97.0993 111.297C97.0993 113.234 97.1604 113.854 97.745 114.456C98.1464 114.874 98.731 115.119 99.3418 115.119C99.9526 115.119 100.537 114.874 100.939 114.456C101.523 113.854 101.584 113.234 101.584 111.297C101.584 109.36 101.523 108.74 100.939 108.138Z" fill="white"/>
<path d="M109.952 116C108.085 116 106.733 114.718 106.733 112.868V106.672H107.719V112.789C107.719 114.194 108.6 115.119 109.952 115.119C111.305 115.119 112.204 114.194 112.204 112.789V106.672H113.19V112.868C113.19 114.718 111.828 116 109.952 116Z" fill="white"/>
<path d="M120.065 116C118.678 116 117.762 115.651 116.898 114.778L117.57 114.107C118.338 114.874 119.053 115.119 120.092 115.119C121.444 115.119 122.273 114.482 122.273 113.4C122.273 112.92 122.133 112.501 121.828 112.239C121.531 111.978 121.296 111.899 120.624 111.794L119.542 111.628C118.818 111.515 118.242 111.279 117.84 110.93C117.369 110.512 117.142 109.944 117.142 109.203C117.142 107.632 118.277 106.594 120.109 106.594C121.287 106.594 122.072 106.89 122.866 107.606L122.229 108.243C121.653 107.719 121.051 107.449 120.074 107.449C118.835 107.449 118.128 108.138 118.128 109.168C118.128 109.622 118.259 109.988 118.547 110.232C118.835 110.477 119.315 110.66 119.795 110.738L120.807 110.896C121.68 111.026 122.107 111.21 122.5 111.55C123.006 111.978 123.276 112.615 123.276 113.382C123.276 115.005 122.002 116.009 120.083 116.009L120.065 116Z" fill="white"/>
<path d="M127.281 115.922V106.672H133.023V107.554H128.268V110.817H132.325V111.698H128.268V115.04H133.023V115.922H127.281Z" fill="white"/>
<path d="M261.317 115.922V106.672H267.058V107.554H262.303V110.817H266.36V111.698H262.303V115.04H267.058V115.922H261.317Z" fill="white"/>
<path d="M273.437 116C272.049 116 271.133 115.651 270.269 114.778L270.95 114.107C271.718 114.874 272.433 115.119 273.472 115.119C274.824 115.119 275.653 114.482 275.653 113.4C275.653 112.92 275.513 112.501 275.208 112.239C274.911 111.978 274.676 111.899 273.995 111.794L272.913 111.628C272.189 111.515 271.613 111.279 271.212 110.93C270.74 110.512 270.513 109.944 270.513 109.203C270.513 107.632 271.648 106.594 273.48 106.594C274.667 106.594 275.443 106.89 276.238 107.606L275.601 108.243C275.025 107.719 274.414 107.449 273.445 107.449C272.215 107.449 271.499 108.138 271.499 109.168C271.499 109.622 271.63 109.988 271.918 110.232C272.206 110.477 272.686 110.66 273.166 110.738L274.178 110.896C275.051 111.026 275.478 111.21 275.871 111.55C276.377 111.978 276.648 112.615 276.648 113.382C276.648 115.005 275.374 116.009 273.454 116.009L273.437 116Z" fill="white"/>
<path d="M283.366 107.554V115.922H282.38V107.554H279.702V106.672H286.045V107.554H283.366Z" fill="white"/>
<path d="M296.926 115.922V107.711L295.198 109.229V108.164L296.926 106.672H297.86V115.922H296.926Z" fill="white"/>
<path d="M307.659 111.332L305.381 115.922H304.404L306.481 111.759C306.193 111.89 305.861 111.951 305.495 111.951C304.055 111.951 303.104 110.843 303.104 109.325C303.104 107.807 304.09 106.585 305.661 106.585C307.231 106.585 308.235 107.649 308.235 109.246C308.235 109.909 308.043 110.546 307.65 111.323L307.659 111.332ZM305.669 107.423C304.683 107.423 304.046 108.164 304.046 109.29C304.046 110.32 304.605 111.157 305.669 111.157C306.655 111.157 307.31 110.433 307.31 109.29C307.31 108.147 306.664 107.423 305.669 107.423Z" fill="white"/>
<path d="M316.393 111.332L314.116 115.922H313.138L315.215 111.759C314.927 111.89 314.596 111.951 314.229 111.951C312.789 111.951 311.838 110.843 311.838 109.325C311.838 107.807 312.824 106.585 314.395 106.585C315.966 106.585 316.969 107.649 316.969 109.246C316.969 109.909 316.777 110.546 316.384 111.323L316.393 111.332ZM314.404 107.423C313.418 107.423 312.781 108.164 312.781 109.29C312.781 110.32 313.339 111.157 314.404 111.157C315.39 111.157 316.044 110.433 316.044 109.29C316.044 108.147 315.398 107.423 314.404 107.423Z" fill="white"/>
<path d="M322.693 115.922H321.707L324.918 107.501H321.698V108.959H320.773V106.672H325.904V107.501L322.693 115.922Z" fill="white"/>
</g>
<defs>
<clipPath id="clip0_174_110">
<rect width="331" height="116" fill="white"/>
</clipPath>
</defs>
</svg>
