<svg width="151" height="53" viewBox="0 0 151 53" fill="none" xmlns="http://www.w3.org/2000/svg">
<g clip-path="url(#clip0_84_549)">
<path d="M13.3111 40.8404H0V40.7208C0 39.752 7.56314 42.0523 7.56314 33.0861V6.36287C7.56314 -0.908981 0 1.02858 0 0.119603V0H13.3111V40.8404ZM17.3634 0C31.4587 0 42.5924 6.66586 42.5924 20.3604C42.5924 27.6322 37.9948 40.8404 17.3634 40.8404V40.4776C28.5568 39.6922 36.116 33.2057 36.116 20.6036C36.116 10.9676 30.973 1.27178 17.3634 0.362795V0Z" fill="#353535"/>
<path d="M46.9512 29.6296C46.5292 42.0524 54.4546 39.8078 54.4546 40.7208V40.8404H38.8467V40.7208C38.8467 39.6922 46.5292 42.5985 46.5889 29.6296H46.9512ZM75.2652 40.8404L46.8915 4.12231C43.3806 -0.486385 39.4478 1.02858 39.4478 0.119603V0H51.3657L75.6234 31.6908V40.8404H75.2612H75.2652ZM75.2652 11.2706C75.6871 -1.15217 67.7617 1.09237 67.7617 0.183391V0.0598014H83.3697V0.183391C83.3697 1.21198 75.6871 -1.69437 75.6274 11.2706H75.2652Z" fill="#353535"/>
<path d="M86.9566 52.7728H73.6455V52.6532C73.6455 51.6844 81.2086 53.9847 81.2086 45.0185V18.2952C81.2086 11.0274 73.6455 12.9649 73.6455 12.056V11.9364H86.9566V52.7767V52.7728ZM91.0089 11.9324C105.104 11.9324 116.238 18.5982 116.238 32.2928C116.238 39.5646 111.64 52.7728 91.0089 52.7728V52.41C102.202 51.6246 109.761 45.1381 109.761 32.536C109.761 22.9 104.619 13.2081 91.0089 12.2992V11.9364V11.9324Z" fill="#353535"/>
<path d="M112.523 40.9002V40.7806C112.523 39.8118 120.087 42.1122 120.087 33.1459V6.17949C120.087 -0.729564 112.523 1.0286 112.523 0.179417V0.0598145H133.457V0.183404C133.457 1.03258 125.835 -0.542187 125.835 6.18348V40.9002H112.523ZM129.887 40.4776C140.475 39.8716 146.824 36.7819 150.395 26.6595C150.514 26.2967 150.638 26.1173 150.88 26.1173H151.004L147.676 42.0524C145.379 41.267 141.387 40.9002 129.891 40.9002V40.4776H129.887Z" fill="#353535"/>
<path d="M6.65977 49.1408V50.6957H8.51075V51.0983H6.65977V52.9641H6.20996V48.7382H8.82919V49.1408H6.65977Z" fill="#353535"/>
<path d="M12.643 52.9641L12.3046 52.0073H10.4616L10.1233 52.9641H9.6416L11.194 48.7382H11.5722L13.1206 52.9641H12.639H12.643ZM11.3931 49.384L10.5969 51.6166H12.1733L11.3891 49.384H11.3931Z" fill="#353535"/>
<path d="M15.7789 53C15.146 53 14.7281 52.8405 14.334 52.4418L14.6405 52.1349C14.9908 52.4857 15.3172 52.5973 15.7909 52.5973C16.4079 52.5973 16.786 52.3063 16.786 51.8119C16.786 51.5927 16.7223 51.4013 16.583 51.2817C16.4477 51.1621 16.3402 51.1262 16.0337 51.0784L15.5401 51.0026C15.2097 50.9508 14.947 50.8432 14.7639 50.6837C14.5489 50.4923 14.4454 50.2332 14.4454 49.8943C14.4454 49.1767 14.9629 48.7023 15.7988 48.7023C16.3362 48.7023 16.6945 48.8378 17.0567 49.1647L16.7661 49.4558C16.5034 49.2166 16.2288 49.093 15.7829 49.093C15.2177 49.093 14.8952 49.4079 14.8952 49.8784C14.8952 50.0857 14.955 50.2531 15.0863 50.3647C15.2177 50.4764 15.4366 50.5601 15.6555 50.596L16.1173 50.6677C16.5154 50.7275 16.7104 50.8113 16.8895 50.9667C17.1204 51.1621 17.2438 51.4531 17.2438 51.804C17.2438 52.5455 16.6626 53.004 15.7869 53.004L15.7789 53Z" fill="#353535"/>
<path d="M21.5233 52.9641V51.0345H19.5211V52.9641H19.0713V48.7382H19.5211V50.6319H21.5233V48.7382H21.9731V52.9641H21.5233Z" fill="#353535"/>
<path d="M24.0869 52.9641V48.7382H24.5367V52.9641H24.0869Z" fill="#353535"/>
<path d="M29.0428 52.5615C28.7602 52.8445 28.386 53 27.9641 53C27.5422 53 27.168 52.8445 26.8854 52.5615C26.4873 52.1628 26.4873 51.7482 26.4873 50.8511C26.4873 49.9541 26.4873 49.5395 26.8854 49.1408C27.168 48.8578 27.5422 48.7023 27.9641 48.7023C28.386 48.7023 28.7602 48.8578 29.0428 49.1408C29.4409 49.5395 29.4409 49.9541 29.4409 50.8511C29.4409 51.7482 29.4409 52.1628 29.0428 52.5615ZM28.6926 49.4079C28.5094 49.2166 28.2427 49.1049 27.9641 49.1049C27.6855 49.1049 27.4188 49.2166 27.2357 49.4079C26.969 49.683 26.9411 49.9661 26.9411 50.8511C26.9411 51.7362 26.969 52.0193 27.2357 52.2943C27.4188 52.4857 27.6855 52.5973 27.9641 52.5973C28.2427 52.5973 28.5094 52.4857 28.6926 52.2943C28.9593 52.0193 28.9871 51.7362 28.9871 50.8511C28.9871 49.9661 28.9593 49.683 28.6926 49.4079Z" fill="#353535"/>
<path d="M34.0825 52.9641L31.8414 49.5754V52.9641H31.3916V48.7382H31.8175L34.0586 52.1149V48.7382H34.5084V52.9641H34.0825Z" fill="#353535"/>
<path d="M41.4423 52.9641V51.0345H39.44V52.9641H38.9902V48.7382H39.44V50.6319H41.4423V48.7382H41.8921V52.9641H41.4423Z" fill="#353535"/>
<path d="M46.3983 52.5615C46.1157 52.8445 45.7415 53 45.3196 53C44.8976 53 44.5235 52.8445 44.2408 52.5615C43.8428 52.1628 43.8428 51.7482 43.8428 50.8511C43.8428 49.9541 43.8428 49.5395 44.2408 49.1408C44.5235 48.8578 44.8976 48.7023 45.3196 48.7023C45.7415 48.7023 46.1157 48.8578 46.3983 49.1408C46.7964 49.5395 46.7964 49.9541 46.7964 50.8511C46.7964 51.7482 46.7964 52.1628 46.3983 52.5615ZM46.048 49.4079C45.8649 49.2166 45.5982 49.1049 45.3196 49.1049C45.0409 49.1049 44.7742 49.2166 44.5911 49.4079C44.3244 49.683 44.2966 49.9661 44.2966 50.8511C44.2966 51.7362 44.3244 52.0193 44.5911 52.2943C44.7742 52.4857 45.0409 52.5973 45.3196 52.5973C45.5982 52.5973 45.8649 52.4857 46.048 52.2943C46.3147 52.0193 46.3426 51.7362 46.3426 50.8511C46.3426 49.9661 46.3147 49.683 46.048 49.4079Z" fill="#353535"/>
<path d="M50.1593 53C49.3074 53 48.6904 52.414 48.6904 51.5688V48.7382H49.1402V51.5329C49.1402 52.1747 49.5423 52.5973 50.1593 52.5973C50.7763 52.5973 51.1863 52.1747 51.1863 51.5329V48.7382H51.6361V51.5688C51.6361 52.414 51.0151 53 50.1593 53Z" fill="#353535"/>
<path d="M54.7731 53C54.1402 53 53.7222 52.8405 53.3281 52.4418L53.6346 52.1349C53.9849 52.4857 54.3113 52.5973 54.785 52.5973C55.402 52.5973 55.7802 52.3063 55.7802 51.8119C55.7802 51.5927 55.7165 51.4013 55.5772 51.2817C55.4418 51.1621 55.3343 51.1262 55.0278 51.0784L54.5342 51.0026C54.2039 50.9508 53.9411 50.8432 53.758 50.6837C53.5431 50.4923 53.4396 50.2332 53.4396 49.8943C53.4396 49.1767 53.9571 48.7023 54.793 48.7023C55.3304 48.7023 55.6886 48.8378 56.0509 49.1647L55.7603 49.4558C55.4976 49.2166 55.2229 49.093 54.7771 49.093C54.2118 49.093 53.8894 49.4079 53.8894 49.8784C53.8894 50.0857 53.9491 50.2531 54.0805 50.3647C54.2118 50.4764 54.4307 50.5601 54.6497 50.596L55.1114 50.6677C55.5095 50.7275 55.7045 50.8113 55.8837 50.9667C56.1145 51.1621 56.2379 51.4531 56.2379 51.804C56.2379 52.5455 55.6568 53.004 54.781 53.004L54.7731 53Z" fill="#353535"/>
<path d="M58.0654 52.9641V48.7382H60.6847V49.1408H58.5152V50.6319H60.3662V51.0345H58.5152V52.5615H60.6847V52.9641H58.0654Z" fill="#353535"/>
<path d="M119.211 52.9641V48.7382H121.83V49.1408H119.661V50.6319H121.512V51.0345H119.661V52.5615H121.83V52.9641H119.211Z" fill="#353535"/>
<path d="M124.74 53C124.107 53 123.689 52.8405 123.295 52.4418L123.605 52.1349C123.956 52.4857 124.282 52.5973 124.756 52.5973C125.373 52.5973 125.751 52.3063 125.751 51.8119C125.751 51.5927 125.687 51.4013 125.548 51.2817C125.413 51.1621 125.305 51.1262 124.995 51.0784L124.501 51.0026C124.171 50.9508 123.908 50.8432 123.725 50.6837C123.51 50.4923 123.406 50.2332 123.406 49.8943C123.406 49.1767 123.924 48.7023 124.76 48.7023C125.301 48.7023 125.655 48.8378 126.018 49.1647L125.727 49.4558C125.464 49.2166 125.186 49.093 124.744 49.093C124.183 49.093 123.856 49.4079 123.856 49.8784C123.856 50.0857 123.916 50.2531 124.047 50.3647C124.179 50.4764 124.398 50.5601 124.616 50.596L125.078 50.6677C125.476 50.7275 125.671 50.8113 125.85 50.9667C126.081 51.1621 126.205 51.4531 126.205 51.804C126.205 52.5455 125.624 53.004 124.748 53.004L124.74 53Z" fill="#353535"/>
<path d="M129.27 49.1408V52.9641H128.82V49.1408H127.598V48.7382H130.492V49.1408H129.27Z" fill="#353535"/>
<path d="M135.456 52.9641V49.2126L134.668 49.9063V49.4199L135.456 48.7382H135.882V52.9641H135.456Z" fill="#353535"/>
<path d="M140.352 50.8671L139.313 52.9641H138.868L139.815 51.0624C139.684 51.1222 139.532 51.1501 139.365 51.1501C138.708 51.1501 138.274 50.6438 138.274 49.9501C138.274 49.2564 138.724 48.6983 139.441 48.6983C140.157 48.6983 140.615 49.1847 140.615 49.9142C140.615 50.2172 140.527 50.5083 140.348 50.8631L140.352 50.8671ZM139.445 49.081C138.995 49.081 138.704 49.4199 138.704 49.9342C138.704 50.4046 138.959 50.7873 139.445 50.7873C139.895 50.7873 140.193 50.4564 140.193 49.9342C140.193 49.4119 139.898 49.081 139.445 49.081Z" fill="#353535"/>
<path d="M144.337 50.8671L143.298 52.9641H142.852L143.799 51.0624C143.668 51.1222 143.517 51.1501 143.349 51.1501C142.693 51.1501 142.259 50.6438 142.259 49.9501C142.259 49.2564 142.709 48.6983 143.425 48.6983C144.142 48.6983 144.599 49.1847 144.599 49.9142C144.599 50.2172 144.512 50.5083 144.333 50.8631L144.337 50.8671ZM143.429 49.081C142.979 49.081 142.689 49.4199 142.689 49.9342C142.689 50.4046 142.943 50.7873 143.429 50.7873C143.879 50.7873 144.177 50.4564 144.177 49.9342C144.177 49.4119 143.883 49.081 143.429 49.081Z" fill="#353535"/>
<path d="M147.211 52.9641H146.761L148.226 49.1169H146.757V49.7827H146.335V48.7382H148.676V49.1169L147.211 52.9641Z" fill="#353535"/>
</g>
<defs>
<clipPath id="clip0_84_549">
<rect width="151" height="53" fill="white"/>
</clipPath>
</defs>
</svg>
