<svg width="22" height="22" viewBox="0 0 22 22" fill="none" xmlns="http://www.w3.org/2000/svg">
<g clip-path="url(#clip0_570_39)">
<path d="M21.8907 18.0766C21.6058 19.2099 20.9813 20.1309 19.9836 20.7551C18.8996 21.4339 17.6874 21.7525 16.4316 21.9272C14.3052 22.2229 12.3852 21.5868 10.5278 20.642C8.51654 19.6188 6.75841 18.2612 5.20081 16.6415C4.05023 15.4437 3.09224 14.096 2.25834 12.6649C1.27851 10.9837 0.530981 9.2063 0.177567 7.281C0.0792861 6.7451 -0.0180019 6.2072 0.00284549 5.92932C0.015751 4.13106 0.470424 2.75159 1.43933 1.57557C2.2911 0.543454 3.39999 -0.0202418 4.76897 -0.000393363C5.32589 0.00853843 5.74085 0.211985 5.99102 0.751862C6.65616 2.19187 7.35901 3.61401 8.02415 5.055C8.32197 5.70008 8.22071 5.92436 7.66577 6.42554C7.07708 6.95946 6.44768 7.44078 5.83318 7.94295C5.73093 8.02631 5.6396 8.12158 5.54032 8.20991C5.17599 8.53542 5.10054 8.92346 5.26732 9.37799C5.51947 10.0657 5.87587 10.6999 6.24516 11.3251C7.4702 13.3993 9.19756 14.9494 11.3041 16.0907C11.6953 16.3031 12.1073 16.4798 12.5163 16.6584C12.9938 16.8678 13.4157 16.7934 13.7681 16.3865C14.1463 15.9488 14.5454 15.529 14.9117 15.0834C15.2423 14.6825 15.6503 14.3728 16.0504 14.0563C16.3244 13.8379 16.6371 13.7933 16.9816 13.9461C18.2513 14.5068 19.5438 15.0169 20.7818 15.6471C21.8778 16.2049 22.1935 16.8658 21.8907 18.0756V18.0766Z" fill="#353535"/>
</g>
<defs>
<clipPath id="clip0_570_39">
<rect width="22" height="22" fill="white"/>
</clipPath>
</defs>
</svg>
