<svg width="26" height="17" viewBox="0 0 26 17" fill="none" xmlns="http://www.w3.org/2000/svg">
<g clip-path="url(#clip0_570_34)">
<path d="M0.428189 15.2499C0.322772 15.3391 0.19888 15.4111 0 15.5479V1.61427C0.199967 1.60819 0.268433 1.74804 0.36407 1.83721C2.74628 4.05544 5.12632 6.27671 7.50635 8.49696C7.53135 8.52128 7.55743 8.54459 7.58243 8.56891C7.92476 8.90129 7.92802 8.91649 7.54982 9.2438C7.09881 9.63293 6.64237 10.017 6.18483 10.4011C5.15131 11.2705 4.11453 12.1379 3.08209 13.0074C2.19637 13.7542 1.315 14.5041 0.428189 15.2499Z" fill="#353535"/>
<path d="M0.429343 0.336433C0.341314 0.254351 0.260893 0.16619 0.0957031 0H25.786C25.8447 0.19355 25.6806 0.254351 25.5893 0.340486C24.3112 1.55955 23.0506 2.79483 21.7432 3.9845C18.9589 6.51788 16.2767 9.14652 13.5 11.687C13.475 11.7103 13.4489 11.7346 13.4228 11.7579C13.0327 12.1035 13.1229 12.1927 12.6349 11.7397C12.0448 11.1905 11.4568 10.6412 10.8678 10.091C7.38796 6.83912 3.90811 3.58828 0.429343 0.336433Z" fill="#353535"/>
<path d="M25.814 16.8936C25.7412 16.922 25.8325 16.8865 25.7955 16.9443C25.7879 16.9574 25.7727 16.9716 25.7575 16.9747C25.7053 16.9848 25.6521 16.999 25.5988 16.999C17.1459 17 8.69296 17 0.0976562 17C0.818188 16.3829 1.43765 15.8458 2.06581 15.3158C3.43514 14.1626 4.80882 13.0145 6.17925 11.8633C6.9313 11.231 7.68334 10.5976 8.43431 9.9643C8.76251 9.68664 8.76903 9.67954 9.08746 9.97544C10.2036 11.0111 11.3132 12.0538 12.4293 13.0905C13.0911 13.7046 12.9694 13.736 13.6671 13.0834C14.7528 12.067 15.8352 11.0466 16.9209 10.0302C17.2763 9.69677 17.3198 9.69069 17.6686 9.98456C18.9173 11.0354 20.1573 12.0954 21.406 13.1472C22.695 14.2315 23.9893 15.3097 25.2815 16.392C25.4684 16.5491 25.6716 16.693 25.814 16.8936Z" fill="#353535"/>
<path d="M25.9999 1.57374V15.3847C25.8021 15.4394 25.7314 15.3199 25.6434 15.2459C23.8915 13.7603 22.1429 12.2707 20.3899 10.7861C19.7607 10.2541 19.1162 9.73731 18.4924 9.20023C18.1664 8.92054 18.1664 8.89521 18.4783 8.59526C19.2206 7.88186 19.978 7.18264 20.7268 6.4733C21.3104 5.92102 21.8842 5.35962 22.47 4.80937C23.4122 3.92472 24.3588 3.04411 25.3076 2.16452C25.5108 1.97604 25.7303 1.80276 25.9999 1.57374Z" fill="#353535"/>
</g>
<defs>
<clipPath id="clip0_570_34">
<rect width="26" height="17" fill="white"/>
</clipPath>
</defs>
</svg>
