<svg width="12" height="8" viewBox="0 0 12 8" fill="none" xmlns="http://www.w3.org/2000/svg">
<g clip-path="url(#clip0_571_706)">
<path d="M0.195917 7.17664C0.147263 7.21861 0.0900817 7.25246 -0.00170898 7.31684V0.759856C0.0905833 0.756995 0.122183 0.822803 0.166323 0.864768C1.2658 1.90864 2.36428 2.95394 3.46276 3.99877C3.4743 4.01021 3.48634 4.02118 3.49787 4.03263C3.65587 4.18904 3.65738 4.19619 3.48283 4.35022C3.27467 4.53334 3.064 4.71408 2.85283 4.89481C2.37582 5.30397 1.8973 5.71217 1.4208 6.12133C1.012 6.47278 0.605213 6.82567 0.195917 7.17664Z" fill="white"/>
<path d="M0.196468 0.158321C0.155839 0.119695 0.118722 0.078207 0.0424805 0H11.8995C11.9266 0.0910825 11.8509 0.119695 11.8087 0.160229C11.2189 0.733905 10.637 1.31521 10.0336 1.87506C8.74855 3.06724 7.51063 4.30424 6.22907 5.49976C6.21754 5.51073 6.2055 5.52217 6.19346 5.53314C6.01339 5.69576 6.05502 5.73772 5.82981 5.52456C5.55745 5.26609 5.28609 5.00763 5.01423 4.74869C3.40814 3.21841 1.80205 1.6886 0.196468 0.158321Z" fill="white"/>
<path d="M11.9125 7.94978C11.8789 7.96313 11.9211 7.94644 11.904 7.97362C11.9005 7.97982 11.8935 7.98649 11.8865 7.98792C11.8624 7.99269 11.8378 7.99937 11.8132 7.99937C7.91187 7.99985 4.01052 7.99985 0.043457 7.99985C0.37601 7.70943 0.661915 7.45669 0.951834 7.20729C1.58383 6.66461 2.21784 6.12431 2.85035 5.58258C3.19744 5.28502 3.54454 4.98697 3.89114 4.68893C4.04262 4.55826 4.04563 4.55493 4.1926 4.69417C4.70773 5.18154 5.21985 5.67224 5.73498 6.16008C6.04045 6.44906 5.98427 6.46384 6.30629 6.15674C6.80738 5.67844 7.30696 5.19823 7.80804 4.71992C7.97206 4.56303 7.99213 4.56017 8.15314 4.69846C8.72946 5.19298 9.30177 5.69179 9.8781 6.18678C10.473 6.69703 11.0704 7.20442 11.6668 7.71372C11.753 7.78764 11.8468 7.85536 11.9125 7.94978Z" fill="white"/>
<path d="M11.9983 0.740723V7.24001C11.907 7.26576 11.8744 7.20949 11.8338 7.17468C11.0253 6.47558 10.2182 5.77458 9.40914 5.07596C9.11872 4.82561 8.82128 4.5824 8.53336 4.32966C8.38289 4.19804 8.38289 4.18612 8.52684 4.04497C8.86943 3.70925 9.21903 3.38021 9.56463 3.0464C9.83398 2.7865 10.0988 2.52232 10.3692 2.26337C10.8041 1.84707 11.2409 1.43266 11.6788 1.01874C11.7726 0.930041 11.8739 0.848496 11.9983 0.740723Z" fill="white"/>
</g>
<defs>
<clipPath id="clip0_571_706">
<rect width="12" height="8" fill="white" transform="translate(-0.00170898)"/>
</clipPath>
</defs>
</svg>
