<svg width="10" height="10" viewBox="0 0 10 10" fill="none" xmlns="http://www.w3.org/2000/svg">
<g clip-path="url(#clip0_571_711)">
<path d="M9.94859 8.21654C9.81909 8.7317 9.53526 9.15032 9.08176 9.43406C8.589 9.74261 8.03803 9.88742 7.46721 9.96681C6.50064 10.1012 5.62794 9.81208 4.78366 9.38264C3.86945 8.91755 3.07029 8.30045 2.36229 7.56425C1.8393 7.01977 1.40385 6.40718 1.02481 5.75669C0.579432 4.99252 0.239646 4.1846 0.0790032 3.30947C0.0343301 3.06587 -0.00989169 2.82138 -0.000415581 2.69507C0.00545058 1.87767 0.21212 1.25064 0.652533 0.71609C1.0397 0.246945 1.54374 -0.00927988 2.166 -0.00025787C2.41915 0.00380204 2.60777 0.0962777 2.72148 0.341676C3.02382 0.996224 3.3433 1.64265 3.64563 2.29765C3.781 2.59086 3.73498 2.69281 3.48273 2.92062C3.21514 3.16331 2.92906 3.38209 2.64974 3.61035C2.60326 3.64824 2.56174 3.69155 2.51662 3.7317C2.35101 3.87966 2.31672 4.05604 2.39253 4.26264C2.50714 4.57526 2.66914 4.86351 2.837 5.1477C3.39384 6.0905 4.179 6.79512 5.13654 7.31389C5.31433 7.41042 5.50159 7.49072 5.6875 7.57192C5.90455 7.6671 6.09633 7.63327 6.25652 7.44832C6.42845 7.24938 6.60985 7.05857 6.77635 6.85602C6.92662 6.67378 7.11208 6.53303 7.29393 6.38913C7.41847 6.28989 7.56062 6.26959 7.7172 6.33906C8.29434 6.59393 8.88186 6.8258 9.44456 7.11225C9.94273 7.36576 10.0862 7.6662 9.94859 8.21609V8.21654Z" fill="white"/>
</g>
<defs>
<clipPath id="clip0_571_711">
<rect width="10" height="10" fill="white" transform="translate(-0.00170898)"/>
</clipPath>
</defs>
</svg>
