<svg width="16" height="19" viewBox="0 0 16 19" fill="none" xmlns="http://www.w3.org/2000/svg">
<path d="M14.8698 8.6535C14.5634 10.2257 13.8238 11.5576 12.6314 12.6308C12.491 12.7573 12.5033 12.831 12.6007 12.9714C13.6732 14.5229 14.7387 16.0796 15.8078 17.6329C15.9385 17.8225 16.0301 18.0175 15.9852 18.2555C15.9289 18.5551 15.7535 18.7519 15.4637 18.8318C15.1731 18.9122 14.921 18.8283 14.7216 18.6011C14.6681 18.5403 14.6248 18.4699 14.5786 18.4026C13.5189 16.8602 12.4578 15.3194 11.4044 13.7727C11.3079 13.6306 11.2399 13.615 11.0887 13.6922C6.41453 16.0746 0.81528 12.7264 0.708002 7.48695C0.626569 3.54796 3.76316 0.271108 7.69335 0.188425C11.8455 0.101016 15.1926 3.54734 14.9882 7.70381C14.9726 8.02239 14.9455 8.34065 14.8698 8.6535ZM13.4558 8.36144C14.0219 5.27244 11.9649 2.2925 8.87806 1.72924C5.79642 1.16755 2.82493 3.21157 2.25272 6.28793C1.67909 9.37189 3.73176 12.3589 6.81726 12.9292C9.90452 13.4998 12.8901 11.4451 13.4558 8.36144Z" fill="#2C2C2C"/>
</svg>
