<svg width="13" height="16" viewBox="0 0 13 16" fill="none" xmlns="http://www.w3.org/2000/svg">
<path d="M11.7556 7.75921C11.5093 9.02294 10.9149 10.0934 9.95647 10.9561C9.8436 11.0577 9.85352 11.117 9.93184 11.2298C10.7939 12.4768 11.6503 13.7281 12.5096 14.9766C12.6147 15.129 12.6882 15.2857 12.6521 15.4771C12.6069 15.7178 12.466 15.876 12.233 15.9402C11.9994 16.0048 11.7968 15.9374 11.6365 15.7548C11.5935 15.706 11.5587 15.6494 11.5216 15.5953C10.6699 14.3555 9.81695 13.117 8.97026 11.8739C8.89267 11.7597 8.83804 11.7471 8.71647 11.8092C4.95953 13.7241 0.459017 11.0329 0.37279 6.82157C0.307337 3.65552 2.82844 1.02168 5.98742 0.955222C9.3248 0.884965 12.0151 3.65503 11.8508 6.99588C11.8383 7.25194 11.8165 7.50775 11.7556 7.75921ZM10.6191 7.52446C11.0741 5.04161 9.42074 2.64642 6.93965 2.19369C4.46272 1.74222 2.07432 3.38514 1.61439 5.85783C1.15333 8.33663 2.8032 10.7375 5.28324 11.1959C7.76469 11.6545 10.1644 10.003 10.6191 7.52446Z" fill="#2C2C2C"/>
</svg>
